<?xml version="1.0" standalone="no"?>
<!DOCTYPE svg PUBLIC "-//W3C//DTD SVG 20010904//EN"
 "http://www.w3.org/TR/2001/REC-SVG-20010904/DTD/svg10.dtd">
<svg version="1.0" xmlns="http://www.w3.org/2000/svg"
 width="260.000000pt" height="260.000000pt" viewBox="0 0 260.000000 260.000000"
 preserveAspectRatio="xMidYMid meet">
<metadata>
Created by potrace 1.11, written by Peter Selinger 2001-2013
</metadata>
<g transform="translate(0.000000,260.000000) scale(0.100000,-0.100000)"
fill="#000000" stroke="none">
<path d="M1125 2569 c-387 -53 -758 -307 -948 -649 -50 -90 -102 -239 -128
-362 -28 -137 -30 -376 -5 -493 136 -620 655 -1045 1277 -1045 534 0 1014 332
1203 832 54 145 70 241 70 428 1 191 -8 258 -56 404 -63 195 -156 346 -312
502 -198 199 -431 322 -696 368 -113 19 -317 27 -405 15z m350 -490 c353 -85
596 -396 596 -764 0 -442 -345 -786 -786 -786 -441 0 -786 345 -786 786 0 516
472 886 976 764z"/>
<path d="M1165 2039 c-27 -4 -75 -17 -105 -27 l-55 -19 -3 -486 c-1 -280 2
-487 7 -487 5 0 48 35 96 77 47 43 108 97 134 121 l48 42 134 -120 c73 -66
137 -120 141 -120 5 0 8 218 8 486 l0 485 -37 16 c-88 36 -256 51 -368 32z"/>
<path d="M1866 1740 c-10 -42 -127 -993 -123 -1003 1 -5 38 28 80 73 60 63 88
104 122 174 63 132 78 208 73 358 -6 147 -36 251 -104 356 -39 61 -43 64 -48
42z"/>
<path d="M666 1708 c-40 -69 -74 -148 -93 -218 -23 -88 -23 -271 1 -360 26
-96 87 -216 149 -290 57 -70 107 -110 107 -88 0 7 -27 224 -60 482 -33 257
-60 479 -60 492 0 36 -16 29 -44 -18z"/>
<path d="M1089 867 c-103 -89 -188 -166 -189 -172 -5 -16 119 -73 205 -95 103
-26 264 -27 361 -2 71 19 214 80 214 91 0 9 -387 341 -397 341 -4 -1 -92 -74
-194 -163z"/>
</g>
</svg>
